{"title":"Sherlock.Holmes.CAM.THS","uid":5261369,"size":889912046,"categoryP":"video","categoryS":"movies","magnet":"?xt=urn:btih:bebbf95578663c7b7ca06ba2be90ca4109136dbe&amp;dn=Sherlock.Holmes.CAM.THS&amp;tr=udp%3A%2F%2Ftracker.openbittorrent.com%3A80&amp;tr=udp%3A%2F%2Fopen.demonii.com%3A1337&amp;tr=udp%3A%2F%2Ftracker.coppersurfer.tk%3A6969&amp;tr=udp%3A%2F%2Fexodus.desync.com%3A6969","seeders":0,"leechers":0,"uploader":"IwannaFan2","files":1,"time":1262742840,"description":"Format/Info                      : Audio Video Interleave\nFile size                        : 849 MiB\nDuration                         : 1h 59mn\nOverall bit rate                 : 992 Kbps\n\nVideo\nID                               : 0\nFormat                           : MPEG-4 Visual\nFormat profile                   : Simple@L1\nFormat settings, BVOP            : No\nFormat settings, QPel            : No\nFormat settings, GMC             : No warppoints\nFormat settings, Matrix          : Default (H.263)\nCodec ID                         : DIVX\nCodec ID/Info                    : Project Mayo\nCodec ID/Hint                    : DivX 4\nDuration                         : 1h 59mn\nBit rate                         : 820 Kbps\nWidth                            : 544 pixels\nHeight                           : 368 pixels\nDisplay aspect ratio             : 1.478\nFrame rate                       : 23.976 fps\nResolution                       : 24 bits\nColorimetry                      : 4:2:0\nScan type                        : Progressive\nBits/(Pixel*Frame)               : 0.171\nStream size                      : 701 MiB (83%)\nWriting library                  : FFmpeg0.4.9-pre1b4721\n\nAudio\nID                               : 1\nFormat                           : MPEG Audio\nFormat version                   : Version 1\nFormat profile                   : Layer 3\nFormat_Settings_Mode             : Joint stereo / MS Stereo\nCodec ID                         : 55\nCodec ID/Hint                    : MP3\nDuration                         : 1h 59mn\nBit rate mode                    : Constant\nBit rate                         : 160 Kbps\nChannel(s)                       : 2 channels\nSampling rate                    : 44.1 KHz\nResolution                       : 16 bits\nStream size                      : 137 MiB (16%)\nAlignment                        : Aligned on interleaves\nInterleave, duration             : 26 ms (0.63 video frame)\nInterleave, preload duration     : 522 ms","torrent":{"xt":"urn:btih:bebbf95578663c7b7ca06ba2be90ca4109136dbe","amp;dn":"Sherlock.Holmes.CAM.THS","amp;tr":["udp%3A%2F%2Ftracker.openbittorrent.com%3A80","udp%3A%2F%2Fopen.demonii.com%3A1337","udp%3A%2F%2Ftracker.coppersurfer.tk%3A6969","udp%3A%2F%2Fexodus.desync.com%3A6969"],"infoHash":"bebbf95578663c7b7ca06ba2be90ca4109136dbe","infoHashBuffer":{"type":"Buffer","data":[190,187,249,85,120,102,60,123,124,160,107,162,190,144,202,65,9,19,109,190]},"announce":[],"urlList":[]}}